STARTFONT 2.1
FONT -Monotype-Courier-Bold-R-Normal--24-240-75-75-M-127-iso8859-5
SIZE 24 75 75
FONTBOUNDINGBOX 17 27 -1 -6

STARTPROPERTIES 24
FOUNDRY "Monotype"
FAMILY_NAME "Courier"
WEIGHT_NAME "Bold"
SLANT "R"
SETWIDTH_NAME "Normal"
ADD_STYLE_NAME ""
PIXEL_SIZE 24
POINT_SIZE 240
RESOLUTION_X 75
RESOLUTION_Y 75
SPACING "M"
AVERAGE_WIDTH 127
CHARSET_REGISTRY "iso8859"
CHARSET_ENCODING "5"
FACE_NAME "Courier Bold ISO Latin Cyrillic"
_DEC_DEVICE_FONTNAMES "PS=courier-b-latcyrillic"
COPYRIGHT "Copyright (c) 1993 Monotype Typography Ltd."
CAP_HEIGHT 15
X_HEIGHT 11
WEIGHT 10
QUAD_WIDTH 15
DEFAULT_CHAR 160
FONT_DESCENT 6
FONT_ASCENT 21
ENDPROPERTIES

CHARS 191

STARTCHAR space
ENCODING 32
SWIDTH 600 0
DWIDTH 15 0
BBX 0 0 0 0
BITMAP
ENDCHAR

STARTCHAR exclam
ENCODING 33
SWIDTH 600 0
DWIDTH 15 0
BBX 4 17 5 0
BITMAP
60
F0
F0
F0
F0
F0
F0
F0
60
60
60
60
00
00
30
70
20
ENDCHAR

STARTCHAR quotedbl
ENCODING 34
SWIDTH 600 0
DWIDTH 15 0
BBX 9 7 3 8
BITMAP
E780
E380
6300
6300
6300
6300
6300
ENDCHAR

STARTCHAR numbersign
ENCODING 35
SWIDTH 600 0
DWIDTH 15 0
BBX 12 20 2 -3
BITMAP
1880
19C0
1980
1980
3980
3980
FFE0
FFF0
7DE0
3B80
3B80
FFC0
FFE0
FFC0
3380
3380
3300
3300
3300
2300
ENDCHAR

STARTCHAR dollar
ENCODING 36
SWIDTH 600 0
DWIDTH 15 0
BBX 11 21 2 -3
BITMAP
0400
0E00
0E00
3FC0
7FC0
F1C0
E0C0
E000
7C00
3F80
1FC0
01E0
C0E0
C0E0
F1C0
FFC0
FF80
0E00
0E00
0E00
0C00
ENDCHAR

STARTCHAR percent
ENCODING 37
SWIDTH 600 0
DWIDTH 15 0
BBX 10 16 2 0
BITMAP
7C00
6C00
C600
C600
C600
7C40
0BC0
1E00
F700
8F80
18C0
18C0
18C0
08C0
0F80
0700
ENDCHAR

STARTCHAR ampersand
ENCODING 38
SWIDTH 600 0
DWIDTH 15 0
BBX 12 15 2 0
BITMAP
0680
1FC0
1FC0
3900
3800
3800
1C00
7E60
7EF0
E760
E7C0
E3C0
7FE0
7FF0
1EE0
ENDCHAR

STARTCHAR quoteright
ENCODING 39
SWIDTH 600 0
DWIDTH 15 0
BBX 5 8 4 8
BITMAP
78
70
70
60
E0
C0
80
80
ENDCHAR

STARTCHAR parenleft
ENCODING 40
SWIDTH 600 0
DWIDTH 15 0
BBX 6 20 6 -4
BITMAP
08
1C
38
38
70
70
60
E0
E0
E0
E0
E0
E0
60
70
70
38
38
1C
08
ENDCHAR

STARTCHAR parenright
ENCODING 41
SWIDTH 600 0
DWIDTH 15 0
BBX 6 20 3 -4
BITMAP
40
E0
70
70
38
38
18
1C
1C
1C
1C
1C
1C
18
38
38
70
70
E0
40
ENDCHAR

STARTCHAR asterisk
ENCODING 42
SWIDTH 600 0
DWIDTH 15 0
BBX 11 11 2 5
BITMAP
0400
0E00
0E00
4E40
FFE0
7FE0
0F00
1F00
3B80
3180
3180
ENDCHAR

STARTCHAR plus
ENCODING 43
SWIDTH 600 0
DWIDTH 15 0
BBX 13 15 1 0
BITMAP
0200
0700
0700
0700
0700
0700
FFF8
FFF8
7FF0
0700
0700
0700
0700
0700
0200
ENDCHAR

STARTCHAR comma
ENCODING 44
SWIDTH 600 0
DWIDTH 15 0
BBX 5 7 5 -4
BITMAP
38
70
70
60
60
C0
C0
ENDCHAR

STARTCHAR minus
ENCODING 45
SWIDTH 600 0
DWIDTH 15 0
BBX 13 3 1 6
BITMAP
7FF0
FFF8
7FF0
ENDCHAR

STARTCHAR period
ENCODING 46
SWIDTH 600 0
DWIDTH 15 0
BBX 4 3 6 0
BITMAP
F0
F0
70
ENDCHAR

STARTCHAR slash
ENCODING 47
SWIDTH 600 0
DWIDTH 15 0
BBX 11 21 2 -3
BITMAP
0040
00E0
00E0
01C0
01C0
0380
0380
0300
0700
0600
0E00
0C00
1C00
1800
3800
3800
7000
7000
E000
E000
4000
ENDCHAR

STARTCHAR zero
ENCODING 48
SWIDTH 600 0
DWIDTH 15 0
BBX 11 17 2 0
BITMAP
0E00
3F80
3F80
71C0
60C0
E0E0
E0E0
E0E0
E0E0
E0E0
E0E0
E0E0
60C0
71C0
3F80
3F80
0E00
ENDCHAR

STARTCHAR one
ENCODING 49
SWIDTH 600 0
DWIDTH 15 0
BBX 11 17 2 0
BITMAP
0200
3E00
FE00
FE00
0E00
0E00
0E00
0E00
0E00
0E00
0E00
0E00
0E00
0E00
7FC0
FFE0
7FC0
ENDCHAR

STARTCHAR two
ENCODING 50
SWIDTH 600 0
DWIDTH 15 0
BBX 12 17 1 0
BITMAP
0F00
1FC0
3FE0
7070
6070
6070
0070
00E0
01C0
03C0
0700
1E00
3C00
7000
FFF0
FFF0
FFF0
ENDCHAR

STARTCHAR three
ENCODING 51
SWIDTH 600 0
DWIDTH 15 0
BBX 12 17 2 0
BITMAP
1F00
7F80
FFC0
60E0
00E0
00E0
01C0
0F80
0FC0
01E0
0060
0070
0070
40F0
FFE0
7FC0
1F00
ENDCHAR

STARTCHAR four
ENCODING 52
SWIDTH 600 0
DWIDTH 15 0
BBX 11 16 1 0
BITMAP
03C0
03C0
07C0
07C0
0EC0
1DC0
1DC0
39C0
39C0
71C0
FFE0
FFE0
F9C0
07C0
07E0
07E0
ENDCHAR

STARTCHAR five
ENCODING 53
SWIDTH 600 0
DWIDTH 15 0
BBX 12 16 2 0
BITMAP
7FE0
7FC0
7000
7000
7700
7FC0
7FE0
30E0
0070
0070
0070
0070
C0E0
FFE0
7FC0
1F00
ENDCHAR

STARTCHAR six
ENCODING 54
SWIDTH 600 0
DWIDTH 15 0
BBX 11 17 3 0
BITMAP
0380
0FE0
1FC0
3C00
7000
7000
6600
EF80
FFC0
F1C0
F0E0
60E0
60E0
70E0
3FC0
3F80
0E00
ENDCHAR

STARTCHAR seven
ENCODING 55
SWIDTH 600 0
DWIDTH 15 0
BBX 11 16 2 0
BITMAP
FFE0
FFE0
C0E0
40C0
01C0
01C0
0180
0380
0380
0300
0700
0700
0600
0E00
0E00
0400
ENDCHAR

STARTCHAR eight
ENCODING 56
SWIDTH 600 0
DWIDTH 15 0
BBX 11 17 2 0
BITMAP
0E00
3F80
7FC0
60E0
E0E0
E0E0
60C0
7FC0
3F80
7FC0
71E0
E0E0
E0E0
E0E0
7FC0
3F80
0E00
ENDCHAR

STARTCHAR nine
ENCODING 57
SWIDTH 600 0
DWIDTH 15 0
BBX 11 17 3 0
BITMAP
0E00
3F00
7F80
71C0
E1C0
E0C0
E0E0
E1E0
73E0
7FE0
3F60
0CC0
01C0
0380
7F80
FE00
3800
ENDCHAR

STARTCHAR colon
ENCODING 58
SWIDTH 600 0
DWIDTH 15 0
BBX 4 11 6 0
BITMAP
F0
F0
60
00
00
00
00
00
F0
F0
70
ENDCHAR

STARTCHAR semicolon
ENCODING 59
SWIDTH 600 0
DWIDTH 15 0
BBX 6 13 5 -2
BITMAP
3C
3C
1C
00
00
00
00
38
30
70
60
60
C0
ENDCHAR

STARTCHAR less
ENCODING 60
SWIDTH 600 0
DWIDTH 15 0
BBX 14 14 0 0
BITMAP
001C
007C
01F8
03E0
0F80
3E00
F800
7C00
1F00
0FC0
03E0
00F8
003C
000C
ENDCHAR

STARTCHAR equal
ENCODING 61
SWIDTH 600 0
DWIDTH 15 0
BBX 14 8 1 3
BITMAP
FFF8
FFFC
FFF8
0000
0000
FFF8
FFFC
FFF8
ENDCHAR

STARTCHAR greater
ENCODING 62
SWIDTH 600 0
DWIDTH 15 0
BBX 14 14 1 0
BITMAP
E000
F800
7E00
1F00
07C0
01F0
00FC
00F8
03E0
0FC0
3F00
7C00
F000
C000
ENDCHAR

STARTCHAR question
ENCODING 63
SWIDTH 600 0
DWIDTH 15 0
BBX 11 16 2 0
BITMAP
1E00
7F80
FFC0
E0E0
E0E0
00E0
01C0
0FC0
0F00
0C00
0C00
0000
0000
0C00
1E00
0C00
ENDCHAR

STARTCHAR at
ENCODING 64
SWIDTH 600 0
DWIDTH 15 0
BBX 10 18 2 -2
BITMAP
1E00
3F80
7180
60C0
C0C0
C1C0
C7C0
CEC0
D8C0
D8C0
DCC0
CFC0
C7C0
C000
6000
60C0
3F80
1F00
ENDCHAR

STARTCHAR A
ENCODING 65
SWIDTH 600 0
DWIDTH 15 0
BBX 17 15 -1 0
BITMAP
1FC000
1FC000
1FE000
03A000
077000
077000
063800
0E1800
0FF800
1FFC00
1FFC00
380E00
7E3F00
FE3F80
7E3F00
ENDCHAR

STARTCHAR B
ENCODING 66
SWIDTH 600 0
DWIDTH 15 0
BBX 14 15 0 0
BITMAP
7FC0
FFE0
7FF0
3838
3838
3838
3FF0
3FF0
3FF8
381C
381C
381C
7FF8
FFF8
7FE0
ENDCHAR

STARTCHAR C
ENCODING 67
SWIDTH 600 0
DWIDTH 15 0
BBX 14 16 1 0
BITMAP
0780
1FF8
3FF8
7838
7018
E018
E000
E000
E000
E000
E000
7008
781C
3FF8
1FF0
03C0
ENDCHAR

STARTCHAR D
ENCODING 68
SWIDTH 600 0
DWIDTH 15 0
BBX 13 15 1 0
BITMAP
FF00
FFC0
FFE0
7070
7030
7038
7038
7038
7038
7038
7030
7070
FFE0
FFC0
FF00
ENDCHAR

STARTCHAR E
ENCODING 69
SWIDTH 600 0
DWIDTH 15 0
BBX 14 15 0 0
BITMAP
7FF8
FFF8
7FF8
3838
38B8
39D0
3FC0
3FC0
3FC0
39C8
381C
381C
7FFC
FFFC
7FFC
ENDCHAR

STARTCHAR F
ENCODING 70
SWIDTH 600 0
DWIDTH 15 0
BBX 14 15 1 0
BITMAP
7FFC
FFFC
7FFC
381C
389C
39C8
3FC0
3FC0
3FC0
39C0
3880
3800
7F80
FF80
7F80
ENDCHAR

STARTCHAR G
ENCODING 71
SWIDTH 600 0
DWIDTH 15 0
BBX 15 16 0 0
BITMAP
07C0
1FFC
3FFC
781C
701C
E008
E000
E000
E1FC
E1FE
E1FC
701C
781C
3FFC
1FF8
03C0
ENDCHAR

STARTCHAR H
ENCODING 72
SWIDTH 600 0
DWIDTH 15 0
BBX 15 15 0 0
BITMAP
7C7C
7EFC
3C78
3838
3838
3838
3FF8
3FF8
3FF8
3838
3838
3838
7C7C
FEFE
7C7C
ENDCHAR

STARTCHAR I
ENCODING 73
SWIDTH 600 0
DWIDTH 15 0
BBX 11 15 2 0
BITMAP
7FC0
FFE0
7FC0
0E00
0E00
0E00
0E00
0E00
0E00
0E00
0E00
0E00
7FC0
FFE0
7FC0
ENDCHAR

STARTCHAR J
ENCODING 74
SWIDTH 600 0
DWIDTH 15 0
BBX 14 15 1 0
BITMAP
0FF8
0FFC
0FF8
00E0
00E0
00E0
00E0
00E0
E0E0
E0E0
E0E0
E0E0
FFC0
7F80
0E00
ENDCHAR

STARTCHAR K
ENCODING 75
SWIDTH 600 0
DWIDTH 15 0
BBX 15 15 0 0
BITMAP
7E7C
FE7C
7E7C
38F0
39E0
3BC0
3F00
3FC0
3DE0
38E0
3870
3830
7E3C
FE1E
7E1C
ENDCHAR

STARTCHAR L
ENCODING 76
SWIDTH 600 0
DWIDTH 15 0
BBX 14 15 1 0
BITMAP
7F00
FF80
7F00
1C00
1C00
1C00
1C00
1C00
1C08
1C1C
1C1C
1C1C
7FFC
FFFC
7FFC
ENDCHAR

STARTCHAR M
ENCODING 77
SWIDTH 600 0
DWIDTH 15 0
BBX 15 15 0 0
BITMAP
F01E
F83E
783C
7C7C
7C7C
76EC
76EC
76DC
77DC
739C
739C
701C
FC7E
FC7E
FC7E
ENDCHAR

STARTCHAR N
ENCODING 78
SWIDTH 600 0
DWIDTH 15 0
BBX 15 15 0 0
BITMAP
787E
FC7E
7C7E
3E1C
3F1C
3B1C
3B9C
3BDC
39DC
38EC
38FC
387C
7E3C
7E3C
7E1C
ENDCHAR

STARTCHAR O
ENCODING 79
SWIDTH 600 0
DWIDTH 15 0
BBX 15 16 0 0
BITMAP
0380
0FE0
3FF8
3838
701C
600C
E00E
E00E
E00E
E00E
600C
701C
3838
3FF8
0FE0
0380
ENDCHAR

STARTCHAR P
ENCODING 80
SWIDTH 600 0
DWIDTH 15 0
BBX 13 15 1 0
BITMAP
7F80
FFE0
7FF0
3838
3838
3838
3870
3FF0
3FE0
3F80
3800
3800
7F00
FF80
7F00
ENDCHAR

STARTCHAR Q
ENCODING 81
SWIDTH 600 0
DWIDTH 15 0
BBX 15 19 0 -4
BITMAP
0380
1FF0
3FF8
783C
701C
600E
E00E
E00E
E00E
600E
701C
701C
3C78
1FF0
07E0
0F84
1FFE
1FFC
0838
ENDCHAR

STARTCHAR R
ENCODING 82
SWIDTH 600 0
DWIDTH 15 0
BBX 15 15 0 0
BITMAP
7FC0
FFE0
7FF0
3838
3838
3838
3FF0
3FC0
3FE0
38F0
3870
3838
7E1E
FE1E
7E0C
ENDCHAR

STARTCHAR S
ENCODING 83
SWIDTH 600 0
DWIDTH 15 0
BBX 12 16 2 0
BITMAP
0F00
3FE0
7FE0
E0E0
E060
E060
7800
7F80
1FE0
01E0
C070
C070
E0F0
FFE0
FFC0
0F00
ENDCHAR

STARTCHAR T
ENCODING 84
SWIDTH 600 0
DWIDTH 15 0
BBX 13 15 1 0
BITMAP
FFF8
FFF8
FFF8
E738
E738
E738
4710
0700
0700
0700
0700
0700
1FC0
3FE0
1FC0
ENDCHAR

STARTCHAR U
ENCODING 85
SWIDTH 600 0
DWIDTH 15 0
BBX 14 15 1 0
BITMAP
FCFC
FCFC
FCFC
7038
7038
7038
7038
7038
7038
7038
7038
3870
3FF0
1FE0
0780
ENDCHAR

STARTCHAR V
ENCODING 86
SWIDTH 600 0
DWIDTH 15 0
BBX 17 15 -1 0
BITMAP
7E3F00
FE3F80
7E3F00
180E00
1C1C00
1C1C00
0E3800
0E3800
063000
077000
037000
03E000
03E000
01C000
01C000
ENDCHAR

STARTCHAR W
ENCODING 87
SWIDTH 600 0
DWIDTH 15 0
BBX 15 15 0 0
BITMAP
FC7E
FC7E
EC7E
700C
739C
739C
77DC
77DC
36D8
36F8
3EF8
3C78
3C78
3C78
3838
ENDCHAR

STARTCHAR X
ENCODING 88
SWIDTH 600 0
DWIDTH 15 0
BBX 15 15 0 0
BITMAP
7C7C
7C7E
787C
1C70
1EF0
0FE0
07C0
0380
07C0
0EE0
1E70
3838
7C7C
FC7E
7C7C
ENDCHAR

STARTCHAR Y
ENCODING 89
SWIDTH 600 0
DWIDTH 15 0
BBX 14 15 1 0
BITMAP
F8F8
F8FC
F878
38E0
38E0
1DC0
0F80
0F80
0700
0700
0700
0700
3FE0
3FE0
3FE0
ENDCHAR

STARTCHAR Z
ENCODING 90
SWIDTH 600 0
DWIDTH 15 0
BBX 11 15 2 0
BITMAP
FFC0
FFC0
FFC0
E1C0
E380
E700
0E00
1E00
1C00
38E0
70E0
E0E0
FFE0
FFE0
FFE0
ENDCHAR

STARTCHAR bracketleft
ENCODING 91
SWIDTH 600 0
DWIDTH 15 0
BBX 6 20 6 -4
BITMAP
F8
FC
F8
E0
E0
E0
E0
E0
E0
E0
E0
E0
E0
E0
E0
E0
E0
F8
FC
F8
ENDCHAR

STARTCHAR backslash
ENCODING 92
SWIDTH 600 0
DWIDTH 15 0
BBX 11 21 2 -3
BITMAP
4000
E000
E000
7000
7000
3800
3800
1C00
1C00
0C00
0E00
0600
0700
0300
0380
0380
01C0
01C0
00E0
00E0
0040
ENDCHAR

STARTCHAR bracketright
ENCODING 93
SWIDTH 600 0
DWIDTH 15 0
BBX 6 20 3 -4
BITMAP
7C
FC
7C
1C
1C
1C
1C
1C
1C
1C
1C
1C
1C
1C
1C
1C
1C
7C
FC
7C
ENDCHAR

STARTCHAR asciicircum
ENCODING 94
SWIDTH 600 0
DWIDTH 15 0
BBX 11 9 2 8
BITMAP
0400
0400
0E00
1F00
3B80
7BC0
F1E0
E0E0
4040
ENDCHAR

STARTCHAR underscore
ENCODING 95
SWIDTH 600 0
DWIDTH 15 0
BBX 15 1 0 -3
BITMAP
FFFE
ENDCHAR

STARTCHAR quoteleft
ENCODING 96
SWIDTH 600 0
DWIDTH 15 0
BBX 5 8 6 8
BITMAP
F0
70
70
38
38
18
08
08
ENDCHAR

STARTCHAR a
ENCODING 97
SWIDTH 600 0
DWIDTH 15 0
BBX 14 12 1 0
BITMAP
0F80
7FE0
3FF0
0070
0FF0
3FF0
7FF0
F070
E0F0
7FF8
7FFC
1E78
ENDCHAR

STARTCHAR b
ENCODING 98
SWIDTH 600 0
DWIDTH 15 0
BBX 15 16 0 0
BITMAP
7800
F800
7800
3800
39C0
3FF0
3FF8
3C1C
380E
380E
380E
380E
3C1C
7FFC
FFF8
79C0
ENDCHAR

STARTCHAR c
ENCODING 99
SWIDTH 600 0
DWIDTH 15 0
BBX 13 12 1 0
BITMAP
0780
1FF0
3FF0
7070
E030
E030
E000
E000
7018
7FF8
3FF0
07C0
ENDCHAR

STARTCHAR d
ENCODING 100
SWIDTH 600 0
DWIDTH 15 0
BBX 15 16 0 0
BITMAP
0078
00F8
0078
0038
0738
1FF8
3FF8
7078
6038
E038
E038
E038
7078
7FFC
1FFE
073C
ENDCHAR

STARTCHAR e
ENCODING 101
SWIDTH 600 0
DWIDTH 15 0
BBX 13 12 1 0
BITMAP
0F80
3FE0
7FF0
6030
FFF8
FFF8
FFF8
E000
7030
3FF8
1FF8
0780
ENDCHAR

STARTCHAR f
ENCODING 102
SWIDTH 600 0
DWIDTH 15 0
BBX 13 16 2 0
BITMAP
03E0
0FF8
0FF0
1C00
1C00
7FE0
FFE0
7FE0
1C00
1C00
1C00
1C00
1C00
7FC0
FFE0
7FC0
ENDCHAR

STARTCHAR g
ENCODING 103
SWIDTH 600 0
DWIDTH 15 0
BBX 14 17 1 -5
BITMAP
0F78
3FFC
7FF8
70F0
E070
E070
E070
E070
70F0
7FF0
3FF0
0F70
0070
0070
1FE0
1FC0
1F80
ENDCHAR

STARTCHAR h
ENCODING 104
SWIDTH 600 0
DWIDTH 15 0
BBX 15 16 0 0
BITMAP
7800
F800
7800
3800
3980
3FF0
3FF0
3C38
3838
3838
3838
3838
3838
7C7C
FEFE
7C7C
ENDCHAR

STARTCHAR i
ENCODING 105
SWIDTH 600 0
DWIDTH 15 0
BBX 11 16 2 0
BITMAP
1C00
1C00
1C00
0000
0000
7E00
7E00
7E00
0E00
0E00
0E00
0E00
0E00
FFE0
FFE0
FFE0
ENDCHAR

STARTCHAR j
ENCODING 106
SWIDTH 600 0
DWIDTH 15 0
BBX 10 22 2 -6
BITMAP
0700
0700
0700
0000
0000
7FC0
7FC0
7FC0
01C0
01C0
01C0
01C0
01C0
01C0
01C0
01C0
01C0
01C0
01C0
7F80
FF00
7C00
ENDCHAR

STARTCHAR k
ENCODING 107
SWIDTH 600 0
DWIDTH 15 0
BBX 14 16 1 0
BITMAP
7800
F800
7800
3800
3800
39F0
39F8
3BF0
3B80
3E00
3F00
3B80
39C0
78F8
F9FC
78F8
ENDCHAR

STARTCHAR l
ENCODING 108
SWIDTH 600 0
DWIDTH 15 0
BBX 11 16 2 0
BITMAP
7E00
7E00
7E00
0E00
0E00
0E00
0E00
0E00
0E00
0E00
0E00
0E00
0E00
FFE0
FFE0
FFE0
ENDCHAR

STARTCHAR m
ENCODING 109
SWIDTH 600 0
DWIDTH 15 0
BBX 15 12 0 0
BITMAP
F670
FFF8
FBDC
739C
739C
739C
739C
739C
739C
FBDE
FBDE
FBDE
ENDCHAR

STARTCHAR n
ENCODING 110
SWIDTH 600 0
DWIDTH 15 0
BBX 14 12 0 0
BITMAP
7BC0
7FF0
7E70
3838
3838
3838
3838
3838
3838
7C7C
FE7C
7C7C
ENDCHAR

STARTCHAR o
ENCODING 111
SWIDTH 600 0
DWIDTH 15 0
BBX 13 12 1 0
BITMAP
0700
1FC0
3FE0
7070
6038
E038
E038
E038
7070
3FF0
1FC0
0700
ENDCHAR

STARTCHAR p
ENCODING 112
SWIDTH 600 0
DWIDTH 15 0
BBX 15 17 0 -5
BITMAP
7BC0
FFF8
7FFC
3C1C
380E
380E
380E
3C1C
3FFC
3FF8
3BE0
3800
3800
3800
7F00
FF00
7E00
ENDCHAR

STARTCHAR q
ENCODING 113
SWIDTH 600 0
DWIDTH 15 0
BBX 15 17 1 -5
BITMAP
0F3C
1FFE
7FFC
7078
E038
E038
E038
7078
7FF8
3FF8
0FB8
0038
0038
0038
01FE
01FE
00FC
ENDCHAR

STARTCHAR r
ENCODING 114
SWIDTH 600 0
DWIDTH 15 0
BBX 13 12 1 0
BITMAP
7CE0
7DF8
7FF8
1F10
1E00
1C00
1C00
1C00
1C00
FFE0
FFE0
7FC0
ENDCHAR

STARTCHAR s
ENCODING 115
SWIDTH 600 0
DWIDTH 15 0
BBX 11 12 2 0
BITMAP
1E00
7FC0
7FC0
E1C0
F840
7F80
1FC0
00E0
C0E0
E7C0
FFC0
9F00
ENDCHAR

STARTCHAR t
ENCODING 116
SWIDTH 600 0
DWIDTH 15 0
BBX 13 16 2 0
BITMAP
1000
3800
3800
3800
FFE0
FFE0
FFE0
3800
3800
3800
3800
3800
3830
1FF8
1FF0
0780
ENDCHAR

STARTCHAR u
ENCODING 117
SWIDTH 600 0
DWIDTH 15 0
BBX 14 12 0 0
BITMAP
78F8
F8F8
78F8
3838
3838
3838
3838
3838
3878
1FFC
1FFC
073C
ENDCHAR

STARTCHAR v
ENCODING 118
SWIDTH 600 0
DWIDTH 15 0
BBX 15 12 0 0
BITMAP
FC7E
FEFE
7C7E
3838
1C70
1C70
0EE0
0EE0
0740
07C0
0380
0380
ENDCHAR

STARTCHAR w
ENCODING 119
SWIDTH 600 0
DWIDTH 15 0
BBX 15 12 0 0
BITMAP
F83E
FC7E
F83E
739C
3398
3BD8
3BD8
3EF8
1EF0
1E70
1C70
1C70
ENDCHAR

STARTCHAR x
ENCODING 120
SWIDTH 600 0
DWIDTH 15 0
BBX 14 12 1 0
BITMAP
F8F0
FDF8
78F8
3DE0
1FC0
0700
0F80
1EC0
38E0
F8F8
FDFC
F8F8
ENDCHAR

STARTCHAR y
ENCODING 121
SWIDTH 600 0
DWIDTH 15 0
BBX 14 17 1 -6
BITMAP
F8F8
F8FC
F878
7070
3060
38E0
18C0
1DC0
0D80
0F80
0700
0700
0600
0E00
FF00
FF00
FF00
ENDCHAR

STARTCHAR z
ENCODING 122
SWIDTH 600 0
DWIDTH 15 0
BBX 11 12 2 0
BITMAP
FFE0
FFE0
FDC0
E380
4780
0F00
1E00
3C00
70E0
FFE0
FFE0
FFE0
ENDCHAR

STARTCHAR braceleft
ENCODING 123
SWIDTH 600 0
DWIDTH 15 0
BBX 7 20 4 -4
BITMAP
0C
1E
3C
38
38
38
38
38
38
F0
F8
38
38
38
38
38
38
3C
1E
0C
ENDCHAR

STARTCHAR bar
ENCODING 124
SWIDTH 600 0
DWIDTH 15 0
BBX 3 20 6 -4
BITMAP
40
E0
E0
E0
E0
E0
E0
E0
E0
E0
E0
E0
E0
E0
E0
E0
E0
E0
E0
40
ENDCHAR

STARTCHAR braceright
ENCODING 125
SWIDTH 600 0
DWIDTH 15 0
BBX 7 20 4 -4
BITMAP
60
F0
78
38
38
38
38
38
38
1E
1E
38
38
38
38
38
38
78
F0
60
ENDCHAR

STARTCHAR asciitilde
ENCODING 126
SWIDTH 600 0
DWIDTH 15 0
BBX 12 6 2 4
BITMAP
3000
7C70
FE60
CFE0
C7C0
0180
ENDCHAR

STARTCHAR space
ENCODING 160
SWIDTH 600 0
DWIDTH 16 0
BBX 0 0 0 0
BITMAP
ENDCHAR

STARTCHAR afii10023
ENCODING 161
SWIDTH 600 0
DWIDTH 15 0
BBX 14 20 0 0
BITMAP
0840
1CE0
0840
0000
0000
7FF8
FFF8
7FF8
3838
3938
3B90
3F80
3F80
3F80
3988
381C
381C
7FFC
FFFC
7FFC
ENDCHAR

STARTCHAR afii10051
ENCODING 162
SWIDTH 600 0
DWIDTH 15 0
BBX 15 15 0 0
BITMAP
7FC0
FFE0
FFE0
CE60
CE60
0E00
0E70
0EFC
0FFC
0F0E
0E0E
0E0E
1F1C
3FBC
1F38
ENDCHAR

STARTCHAR afii10052
ENCODING 163
SWIDTH 600 0
DWIDTH 15 0
BBX 14 21 1 0
BITMAP
0080
0180
0300
0E00
0400
0000
7FFC
FFFC
7FFC
1C1C
1C1C
1C1C
1C08
1C00
1C00
1C00
1C00
1C00
7F00
FF80
7F00
ENDCHAR

STARTCHAR afii10053
ENCODING 164
SWIDTH 600 0
DWIDTH 15 0
BBX 13 16 1 0
BITMAP
0F80
1FF8
7FF8
7038
E038
C010
FF80
FFC0
FF80
C000
E000
E018
7838
3FF8
1FF0
0780
ENDCHAR

STARTCHAR afii10054
ENCODING 165
SWIDTH 600 0
DWIDTH 15 0
BBX 12 16 2 0
BITMAP
0F00
3FE0
7FE0
E0E0
E060
E060
7800
7F80
1FE0
01E0
C070
C070
E0F0
FFE0
FFC0
0F00
ENDCHAR

STARTCHAR afii10055
ENCODING 166
SWIDTH 600 0
DWIDTH 15 0
BBX 11 15 2 0
BITMAP
FFC0
FFE0
7FC0
0E00
0E00
0E00
0E00
0E00
0E00
0E00
0E00
0E00
FFC0
FFE0
7FC0
ENDCHAR

STARTCHAR afii10056
ENCODING 167
SWIDTH 600 0
DWIDTH 15 0
BBX 10 20 2 0
BITMAP
3100
7180
3100
0000
0000
FFC0
FFC0
FFC0
0C00
0C00
0C00
0C00
0C00
0C00
0C00
0C00
0C00
FFC0
FFC0
FFC0
ENDCHAR

STARTCHAR afii10057
ENCODING 168
SWIDTH 600 0
DWIDTH 15 0
BBX 14 15 1 0
BITMAP
0FF8
0FFC
0FF8
00E0
00E0
00E0
00E0
00E0
E0E0
E0E0
E0E0
E0E0
FFC0
7F80
0E00
ENDCHAR

STARTCHAR afii10058
ENCODING 169
SWIDTH 600 0
DWIDTH 15 0
BBX 16 15 0 0
BITMAP
1FF8
3FF8
1FF8
0EE0
0EE0
0EE0
0EF8
0EFE
0EFE
0EE7
4EE7
EEE7
EDFE
FDFC
79F0
ENDCHAR

STARTCHAR afii10059
ENCODING 170
SWIDTH 600 0
DWIDTH 15 0
BBX 17 15 -1 0
BITMAP
7DF000
7DF000
3DE000
38E000
38E000
38E000
3FF800
3FFE00
3FFF00
38E380
38E380
38E380
7DFF00
FDFF00
7DFC00
ENDCHAR

STARTCHAR afii10060
ENCODING 171
SWIDTH 600 0
DWIDTH 15 0
BBX 15 15 0 0
BITMAP
7FC0
FFE0
FFE0
EEE0
CEE0
0E00
0EE0
0FF8
0FF8
0E1C
0E1C
0E1C
1F3E
3F7E
1F3E
ENDCHAR

STARTCHAR afii10061
ENCODING 172
SWIDTH 600 0
DWIDTH 15 0
BBX 14 21 1 0
BITMAP
00C0
0180
0700
0600
0000
0000
7C78
FEF8
78E8
39D8
3B80
3F80
3F00
3F80
39C0
38C0
38E0
3860
7C7C
FE3C
7C3C
ENDCHAR

STARTCHAR hyphen
ENCODING 173
SWIDTH 600 0
DWIDTH 15 0
BBX 11 2 2 6
BITMAP
FFE0
FFE0
ENDCHAR

STARTCHAR afii10062
ENCODING 174
SWIDTH 600 0
DWIDTH 15 0
BBX 15 20 0 0
BITMAP
1820
0C60
0FE0
0380
0000
F83C
FC7E
703C
3838
1C70
1C70
0EE0
0EC0
07C0
0380
2380
7700
7E00
7E00
3800
ENDCHAR

STARTCHAR afii10145
ENCODING 175
SWIDTH 600 0
DWIDTH 15 0
BBX 15 18 0 -3
BITMAP
7C7C
FEFE
7C7C
3838
3838
3838
3838
3838
3838
3838
3838
3838
7FFC
7FFC
7FFC
0380
0380
0100
ENDCHAR

STARTCHAR afii10017
ENCODING 176
SWIDTH 600 0
DWIDTH 15 0
BBX 17 15 -1 0
BITMAP
1FC000
1FC000
1FE000
03A000
077000
077000
063800
0E1800
0FF800
1FFC00
1FFC00
380E00
7E3F00
FE3F80
7E3F00
ENDCHAR

STARTCHAR afii10018
ENCODING 177
SWIDTH 600 0
DWIDTH 15 0
BBX 15 15 0 0
BITMAP
7FFC
FFFC
7FFC
381C
3808
3800
3FE0
3FF8
3FFC
380E
380E
380E
7FFC
FFFC
7FF0
ENDCHAR

STARTCHAR afii10019
ENCODING 178
SWIDTH 600 0
DWIDTH 15 0
BBX 14 15 0 0
BITMAP
7FC0
FFE0
7FF0
3838
3838
3838
3FE0
3FF0
3FF8
383C
381C
381C
383C
FFF8
FFF0
ENDCHAR

STARTCHAR afii10020
ENCODING 179
SWIDTH 600 0
DWIDTH 15 0
BBX 14 15 1 0
BITMAP
7FFC
FFFC
7FFC
1C1C
1C1C
1C1C
1C08
1C00
1C00
1C00
1C00
1C00
7F00
FF80
7F00
ENDCHAR

STARTCHAR afii10021
ENCODING 180
SWIDTH 600 0
DWIDTH 15 0
BBX 14 18 1 -3
BITMAP
7FF8
7FFC
3FF8
1C70
1C70
1C70
1C70
1C70
1C70
1C70
1870
3870
FFF8
FFFC
FFFC
C01C
C01C
C018
ENDCHAR

STARTCHAR afii10022
ENCODING 181
SWIDTH 600 0
DWIDTH 15 0
BBX 14 15 0 0
BITMAP
7FF8
FFF8
7FF8
3838
38B8
39D0
3FC0
3FC0
3FC0
39C8
381C
381C
7FFC
FFFC
7FFC
ENDCHAR

STARTCHAR afii10024
ENCODING 182
SWIDTH 600 0
DWIDTH 15 0
BBX 15 15 0 0
BITMAP
E78E
F7DE
FBBE
DBB6
1DB0
0FE0
0FE0
1FF0
1DB0
3BB8
3BB8
3398
77DC
F7DE
63CC
ENDCHAR

STARTCHAR afii10025
ENCODING 183
SWIDTH 600 0
DWIDTH 15 0
BBX 14 17 0 0
BITMAP
1000
33C0
3FE0
3FF0
3838
3038
3038
07E0
0FF0
07F8
0018
001C
C01C
F03C
FFF8
3FF0
07C0
ENDCHAR

STARTCHAR afii10026
ENCODING 184
SWIDTH 600 0
DWIDTH 15 0
BBX 15 15 0 0
BITMAP
FC3C
FC7E
FC7C
70F8
71F8
71D8
73B8
77B8
7738
7638
7E38
7C38
F8FC
F8FE
F0FC
ENDCHAR

STARTCHAR afii10027
ENCODING 185
SWIDTH 600 0
DWIDTH 15 0
BBX 15 20 0 0
BITMAP
1820
0C60
0FE0
0380
0000
FC3C
FC7E
FC7C
70F8
71F8
71D8
73B8
77B8
7738
7638
7E38
7C38
F8FC
F8FE
F0FC
ENDCHAR

STARTCHAR afii10028
ENCODING 186
SWIDTH 600 0
DWIDTH 15 0
BBX 14 15 1 0
BITMAP
7C78
FEF8
78E8
39D8
3B80
3F80
3F00
3F80
39C0
38C0
38E0
3860
7C7C
FE3C
7C3C
ENDCHAR

STARTCHAR afii10029
ENCODING 187
SWIDTH 600 0
DWIDTH 15 0
BBX 15 15 0 0
BITMAP
1FFC
3FFE
1FFC
0E38
0E38
0E38
0E38
0E38
0E38
0E38
4E38
EE38
FC7C
FCFE
707C
ENDCHAR

STARTCHAR afii10030
ENCODING 188
SWIDTH 600 0
DWIDTH 15 0
BBX 15 15 0 0
BITMAP
F01E
F83E
783C
7C7C
7C7C
76EC
76EC
76DC
77DC
739C
739C
701C
FC7E
FC7E
FC7E
ENDCHAR

STARTCHAR afii10031
ENCODING 189
SWIDTH 600 0
DWIDTH 15 0
BBX 15 15 0 0
BITMAP
7C7C
7EFC
3C78
3838
3838
3838
3FF8
3FF8
3FF8
3838
3838
3838
7C7C
FEFE
7C7C
ENDCHAR

STARTCHAR afii10032
ENCODING 190
SWIDTH 600 0
DWIDTH 15 0
BBX 15 16 0 0
BITMAP
0380
0FE0
3FF8
3838
701C
600C
E00E
E00E
E00E
E00E
600C
701C
3838
3FF8
0FE0
0380
ENDCHAR

STARTCHAR afii10033
ENCODING 191
SWIDTH 600 0
DWIDTH 15 0
BBX 15 15 0 0
BITMAP
7FFC
7FFC
3FFC
3838
3838
3838
3838
3838
3838
3838
3838
3838
7C7C
FEFE
7C7C
ENDCHAR

STARTCHAR afii10034
ENCODING 192
SWIDTH 600 0
DWIDTH 15 0
BBX 13 15 1 0
BITMAP
7F80
FFE0
7FF0
3838
3838
3838
3870
3FF0
3FE0
3F80
3800
3800
7F00
FF80
7F00
ENDCHAR

STARTCHAR afii10035
ENCODING 193
SWIDTH 600 0
DWIDTH 15 0
BBX 14 16 1 0
BITMAP
0780
1FF8
3FF8
7838
7018
E018
E000
E000
E000
E000
E000
7008
781C
3FF8
1FF0
03C0
ENDCHAR

STARTCHAR afii10036
ENCODING 194
SWIDTH 600 0
DWIDTH 15 0
BBX 13 15 1 0
BITMAP
FFF8
FFF8
FFF8
E738
E738
E738
4710
0700
0700
0700
0700
0700
1FC0
3FE0
1FC0
ENDCHAR

STARTCHAR afii10037
ENCODING 195
SWIDTH 600 0
DWIDTH 15 0
BBX 15 15 0 0
BITMAP
F87C
FC7E
703C
3838
1C70
1C70
0EE0
0EC0
07C0
0380
2380
7700
7E00
7E00
3800
ENDCHAR

STARTCHAR afii10038
ENCODING 196
SWIDTH 600 0
DWIDTH 15 0
BBX 15 15 0 0
BITMAP
0FE0
0FE0
0380
1FF0
7FFC
7FFC
E38E
E38E
E38E
739C
7FFC
3FF8
0380
0FE0
0FE0
ENDCHAR

STARTCHAR afii10039
ENCODING 197
SWIDTH 600 0
DWIDTH 15 0
BBX 15 15 0 0
BITMAP
7C7C
7C7E
7C3C
1C70
1EF0
0FE0
07C0
0380
07C0
0EE0
1E70
3838
7C7C
FC7E
7C7C
ENDCHAR

STARTCHAR afii10040
ENCODING 198
SWIDTH 600 0
DWIDTH 15 0
BBX 15 18 0 -3
BITMAP
7C7C
FEFE
7C7C
3838
3838
3838
3838
3838
3838
3838
3838
3838
7FFE
7FFE
7FFE
000E
000E
0006
ENDCHAR

STARTCHAR afii10041
ENCODING 199
SWIDTH 600 0
DWIDTH 15 0
BBX 15 15 0 0
BITMAP
7C7C
FEFE
7C7C
3838
3838
3838
3838
3878
1FF8
1FF8
0738
0038
01FC
01FE
01FC
ENDCHAR

STARTCHAR afii10042
ENCODING 200
SWIDTH 600 0
DWIDTH 15 0
BBX 17 15 -1 0
BITMAP
7BEF00
FBEF80
7BEF00
39CE00
39CE00
39CE00
39CE00
39CE00
39CE00
39CE00
39CE00
39CE00
7FFF00
7FFF00
7FFF00
ENDCHAR

STARTCHAR afii10043
ENCODING 201
SWIDTH 600 0
DWIDTH 15 0
BBX 17 18 -1 -3
BITMAP
7BEF00
FBEF80
79EF00
39CE00
39CE00
39CE00
39CE00
39CE00
39CE00
39CE00
39CE00
39CE00
7FFF80
7FFF80
7FFF80
000380
000380
000180
ENDCHAR

STARTCHAR afii10044
ENCODING 202
SWIDTH 600 0
DWIDTH 15 0
BBX 16 15 -1 0
BITMAP
FFE0
FFE0
FFE0
E380
6380
0380
03F0
03FC
03FE
0387
0387
0387
0FFE
0FFE
07F8
ENDCHAR

STARTCHAR afii10045
ENCODING 203
SWIDTH 600 0
DWIDTH 15 0
BBX 17 15 -1 0
BITMAP
7E1F00
FE1F00
7E1F00
380E00
380E00
380E00
3E0E00
3F8E00
3FCE00
38EE00
38EE00
38EE00
7FEF00
7FDF80
7F1F00
ENDCHAR

STARTCHAR afii10046
ENCODING 204
SWIDTH 600 0
DWIDTH 15 0
BBX 14 15 0 0
BITMAP
7E00
FE00
7C00
3800
3800
3800
3FC0
3FF0
3FF8
381C
381C
381C
7FF8
FFF8
7FE0
ENDCHAR

STARTCHAR afii10047
ENCODING 205
SWIDTH 600 0
DWIDTH 15 0
BBX 13 16 1 0
BITMAP
0F80
FFE0
FFF0
E070
E038
4018
0FF8
1FF8
0FF8
0018
0038
C038
E0F0
FFE0
7FC0
0F00
ENDCHAR

STARTCHAR afii10048
ENCODING 206
SWIDTH 600 0
DWIDTH 15 0
BBX 17 15 -1 0
BITMAP
7C3800
7EFE00
3DFF00
39C700
3B8380
3B8380
3F8380
3F8380
3F8380
3B8380
3B8300
39C700
7DFF00
FEFE00
7C3800
ENDCHAR

STARTCHAR afii10049
ENCODING 207
SWIDTH 600 0
DWIDTH 15 0
BBX 15 15 0 0
BITMAP
07FC
0FFE
1FFC
3838
3838
3C38
1FF8
07F8
0FF8
0E38
1C38
3838
F8FC
F0FE
60FC
ENDCHAR

STARTCHAR afii10065
ENCODING 208
SWIDTH 600 0
DWIDTH 15 0
BBX 14 12 1 0
BITMAP
0F80
7FE0
3FE0
0070
0FF0
3FF0
7FF0
F070
E0F0
7FF8
7FFC
1E78
ENDCHAR

STARTCHAR afii10066
ENCODING 209
SWIDTH 600 0
DWIDTH 15 0
BBX 13 16 1 0
BITMAP
0070
0070
1FF0
7FE0
7000
EFC0
FFE0
F8F0
F070
E038
E038
E038
7070
78F0
3FE0
1FC0
ENDCHAR

STARTCHAR afii10067
ENCODING 210
SWIDTH 600 0
DWIDTH 15 0
BBX 14 11 0 0
BITMAP
7FC0
FFF0
7FF8
3838
3FF0
3FF0
3FF8
381C
7FFC
FFF8
7FE0
ENDCHAR

STARTCHAR afii10068
ENCODING 211
SWIDTH 600 0
DWIDTH 15 0
BBX 14 12 1 0
BITMAP
7FFC
FFFC
7FFC
1C1C
1C1C
1C1C
1C0C
1C00
1C00
7F00
FF80
7F00
ENDCHAR

STARTCHAR afii10069
ENCODING 212
SWIDTH 600 0
DWIDTH 15 0
BBX 14 15 0 -3
BITMAP
3FF8
3FFC
3FF8
0E70
0E70
0E70
0E70
0E70
1C70
FFF8
FFFC
FFFC
E01C
E01C
4008
ENDCHAR

STARTCHAR afii10070
ENCODING 213
SWIDTH 600 0
DWIDTH 15 0
BBX 13 12 1 0
BITMAP
0F00
3FE0
7FF0
E030
FFF8
FFF8
FFF8
E000
7030
7FF8
3FF0
0780
ENDCHAR

STARTCHAR afii10072
ENCODING 214
SWIDTH 600 0
DWIDTH 15 0
BBX 15 11 0 0
BITMAP
778C
F79E
FBBE
5DB4
0FE0
0FF0
1DB0
3BB8
739C
F79E
678C
ENDCHAR

STARTCHAR afii10073
ENCODING 215
SWIDTH 600 0
DWIDTH 15 0
BBX 13 13 1 0
BITMAP
2000
7780
7FE0
7FF0
7070
70F0
2FE0
0FF0
0038
E038
FFF8
3FF0
07C0
ENDCHAR

STARTCHAR afii10074
ENCODING 216
SWIDTH 600 0
DWIDTH 15 0
BBX 14 12 1 0
BITMAP
F878
FCFC
F8F8
71F0
73B0
7770
7670
7670
7C70
F8F8
F9F8
F0F8
ENDCHAR

STARTCHAR afii10075
ENCODING 217
SWIDTH 600 0
DWIDTH 15 0
BBX 14 17 1 0
BITMAP
1060
18C0
0FC0
0700
0000
F878
FCFC
F8F8
71F0
73B0
7770
7670
7670
7C70
F8F8
F9F8
F0F8
ENDCHAR

STARTCHAR afii10076
ENCODING 218
SWIDTH 600 0
DWIDTH 15 0
BBX 14 12 1 0
BITMAP
7C78
FEF8
7DF8
3BD8
3F00
3F80
3FC0
39C0
38E0
7CF8
FE7C
7C38
ENDCHAR

STARTCHAR afii10077
ENCODING 219
SWIDTH 600 0
DWIDTH 15 0
BBX 15 12 0 0
BITMAP
3FFC
3FFE
1FFC
0E38
0E38
0E38
0E38
0E38
CE38
FE7C
FCFE
787C
ENDCHAR

STARTCHAR afii10078
ENCODING 220
SWIDTH 600 0
DWIDTH 15 0
BBX 14 12 1 0
BITMAP
F03C
F87C
F87C
7CF8
77D8
77D8
77B8
73B8
7338
FCFC
FCFC
FCFC
ENDCHAR

STARTCHAR afii10079
ENCODING 221
SWIDTH 600 0
DWIDTH 15 0
BBX 15 11 0 0
BITMAP
7C7C
7EFC
3C78
3838
3FF8
3FF8
3FF8
3838
7C7C
FEFE
7C7C
ENDCHAR

STARTCHAR afii10080
ENCODING 222
SWIDTH 600 0
DWIDTH 15 0
BBX 13 12 1 0
BITMAP
0700
1FC0
3FE0
7070
6038
E038
E038
E038
7070
3FF0
1FC0
0700
ENDCHAR

STARTCHAR afii10081
ENCODING 223
SWIDTH 600 0
DWIDTH 15 0
BBX 15 12 0 0
BITMAP
7FFC
7FFC
7FFC
3838
3838
3838
3838
3838
3838
7C7C
FEFE
7C7C
ENDCHAR

STARTCHAR afii10082
ENCODING 224
SWIDTH 600 0
DWIDTH 15 0
BBX 15 17 0 -5
BITMAP
7BC0
FFF8
7FFC
3C1C
380E
380E
380E
3C1C
3FFC
3FF8
3BE0
3800
3800
3800
7F00
FF00
7E00
ENDCHAR

STARTCHAR afii10083
ENCODING 225
SWIDTH 600 0
DWIDTH 15 0
BBX 13 12 1 0
BITMAP
0780
1FF0
3FF0
7070
E030
E030
E000
E000
7038
7FF8
1FF0
0780
ENDCHAR

STARTCHAR afii10084
ENCODING 226
SWIDTH 600 0
DWIDTH 15 0
BBX 13 12 1 0
BITMAP
FFF8
FFF8
FFF8
E738
E738
E738
4718
0700
0700
1FC0
3FE0
1FC0
ENDCHAR

STARTCHAR afii10085
ENCODING 227
SWIDTH 600 0
DWIDTH 15 0
BBX 14 15 1 -4
BITMAP
F87C
FCFC
F03C
3870
1870
1CE0
0EE0
0EC0
0780
0380
2700
7700
7E00
7E00
3800
ENDCHAR

STARTCHAR afii10086
ENCODING 228
SWIDTH 600 0
DWIDTH 15 0
BBX 13 19 1 -3
BITMAP
0E00
1F00
0F00
0700
1FC0
3FE0
7FF0
6730
E738
E738
E738
E738
6730
7FF0
3FE0
1700
1FC0
1FC0
1FC0
ENDCHAR

STARTCHAR afii10087
ENCODING 229
SWIDTH 600 0
DWIDTH 15 0
BBX 14 12 1 0
BITMAP
F8F8
FDF8
78F8
3DE0
1FC0
0700
0F80
1EC0
38E0
F8F8
FDFC
F8F8
ENDCHAR

STARTCHAR afii10088
ENCODING 230
SWIDTH 600 0
DWIDTH 15 0
BBX 15 15 0 -3
BITMAP
7C7C
FEFE
7C7C
3838
3838
3838
3838
3838
3838
7FFE
7FFE
7FFE
000E
000E
0004
ENDCHAR

STARTCHAR afii10089
ENCODING 231
SWIDTH 600 0
DWIDTH 15 0
BBX 13 12 1 0
BITMAP
F9F0
FDF8
F9F0
70E0
70E0
71E0
7FE0
3FE0
0CE0
03F0
07F8
03F0
ENDCHAR

STARTCHAR afii10090
ENCODING 232
SWIDTH 600 0
DWIDTH 15 0
BBX 17 12 -1 0
BITMAP
7BEF00
FBEF80
7BEF00
39CE00
39CE00
39CE00
39CE00
39CE00
39CE00
7FFF00
7FFF00
7FFF00
ENDCHAR

STARTCHAR afii10091
ENCODING 233
SWIDTH 600 0
DWIDTH 15 0
BBX 17 15 -1 -3
BITMAP
7BEF00
FBEF80
7BEF00
39CE00
39CE00
39CE00
39CE00
39CE00
39CE00
7FFF80
7FFF80
7FFF80
000380
000380
000100
ENDCHAR

STARTCHAR afii10092
ENCODING 234
SWIDTH 600 0
DWIDTH 15 0
BBX 15 11 0 0
BITMAP
FFE0
FFE0
FFC0
E380
E3F0
E3FC
03FE
038E
07FE
0FFC
07F0
ENDCHAR

STARTCHAR afii10093
ENCODING 235
SWIDTH 600 0
DWIDTH 15 0
BBX 15 11 0 0
BITMAP
7C3E
FE3E
7C3C
381C
3E1C
3F9C
3FDC
39DC
7FDC
FFBE
7E3E
ENDCHAR

STARTCHAR afii10094
ENCODING 236
SWIDTH 600 0
DWIDTH 15 0
BBX 14 11 0 0
BITMAP
7E00
FE00
7C00
3800
3FE0
3FF8
3FFC
381C
7FFC
FFF8
7FE0
ENDCHAR

STARTCHAR afii10095
ENCODING 237
SWIDTH 600 0
DWIDTH 15 0
BBX 13 12 1 0
BITMAP
7F00
FFC0
FFF0
E030
67F8
0FF8
07F8
0030
E070
FFE0
7FC0
1F00
ENDCHAR

STARTCHAR afii10096
ENCODING 238
SWIDTH 600 0
DWIDTH 15 0
BBX 16 12 -1 0
BITMAP
7C78
7EFC
3DFE
3B86
3F87
3F87
3F87
3B87
39CE
7DFE
FEFC
7C30
ENDCHAR

STARTCHAR afii10097
ENCODING 239
SWIDTH 600 0
DWIDTH 15 0
BBX 14 11 1 0
BITMAP
1FF8
7FFC
FFF8
E070
FFF0
7FF0
1FF0
3C70
F9F8
F1FC
E1F8
ENDCHAR

STARTCHAR afii61352
ENCODING 240
SWIDTH 600 0
DWIDTH 15 0
BBX 15 15 0 0
BITMAP
F3E0
FBE0
79CC
79DE
7DDE
7DDE
76DE
76DE
77CC
77C0
73DE
73DE
7BC0
FDC0
7980
ENDCHAR

STARTCHAR afii10071
ENCODING 241
SWIDTH 600 0
DWIDTH 15 0
BBX 13 16 0 0
BITMAP
0840
1CE0
0840
0000
0780
1FE0
3FF0
6038
7FF8
FFF8
6FF8
7000
7838
3FF8
1FF8
0780
ENDCHAR

STARTCHAR afii10099
ENCODING 242
SWIDTH 600 0
DWIDTH 15 0
BBX 13 21 0 -5
BITMAP
7800
FF80
7F80
3E00
3980
3FF0
3FF0
3C38
3838
3838
3838
3838
3838
7C38
FE38
7C38
0038
0038
0FF0
1FE0
0F80
ENDCHAR

STARTCHAR afii10100
ENCODING 243
SWIDTH 600 0
DWIDTH 15 0
BBX 14 17 1 0
BITMAP
0180
0300
0E00
0400
0000
7FFC
FFFC
7FFC
1C1C
1C1C
1C1C
1C0C
1C00
1C00
7F00
FF80
7F00
ENDCHAR

STARTCHAR afii10101
ENCODING 244
SWIDTH 600 0
DWIDTH 15 0
BBX 13 12 1 0
BITMAP
0790
1FF8
7FF8
6038
7F30
FF80
FF80
6000
7038
3FF8
1FF0
07C0
ENDCHAR

STARTCHAR afii10102
ENCODING 245
SWIDTH 600 0
DWIDTH 15 0
BBX 11 12 2 0
BITMAP
1E00
7FC0
7FC0
E1C0
F840
7F80
1FC0
00E0
C0E0
E7C0
FFC0
9F00
ENDCHAR

STARTCHAR afii10103
ENCODING 246
SWIDTH 600 0
DWIDTH 15 0
BBX 11 16 2 0
BITMAP
1C00
1C00
1C00
0000
0000
7E00
7E00
7E00
0E00
0E00
0E00
0E00
0E00
FFE0
FFE0
FFE0
ENDCHAR

STARTCHAR afii10104
ENCODING 247
SWIDTH 600 0
DWIDTH 15 0
BBX 11 16 2 0
BITMAP
2100
7380
2100
0000
0000
3E00
7E00
3E00
0E00
0E00
0E00
0E00
0E00
7FE0
FFE0
7FE0
ENDCHAR

STARTCHAR afii10105
ENCODING 248
SWIDTH 600 0
DWIDTH 15 0
BBX 10 22 2 -6
BITMAP
0700
0700
0700
0000
0000
7FC0
7FC0
7FC0
01C0
01C0
01C0
01C0
01C0
01C0
01C0
01C0
01C0
01C0
01C0
7F80
FF00
7C00
ENDCHAR

STARTCHAR afii10106
ENCODING 249
SWIDTH 600 0
DWIDTH 15 0
BBX 15 12 0 0
BITMAP
3FF0
3FF0
3FF0
0CE0
0CE0
0CFC
0CFC
0CEE
CCEE
FDFE
FDFC
F1F0
ENDCHAR

STARTCHAR afii10107
ENCODING 250
SWIDTH 600 0
DWIDTH 15 0
BBX 17 11 -1 0
BITMAP
7DF000
7DF000
3CE000
38E000
3FFC00
3FFF00
3FFF80
38E380
7DFF80
FDFF00
7DFC00
ENDCHAR

STARTCHAR afii10108
ENCODING 251
SWIDTH 600 0
DWIDTH 15 0
BBX 15 16 0 0
BITMAP
7800
FF80
7F80
3E80
3980
3FF0
3FF0
3C38
3838
3838
3838
3838
3838
7C7C
FEFE
7C7C
ENDCHAR

STARTCHAR afii10109
ENCODING 252
SWIDTH 600 0
DWIDTH 15 0
BBX 14 17 1 0
BITMAP
0080
0380
0700
0C00
0000
7C78
FEF8
7DF8
3BD8
3F00
3F80
3FC0
39C0
38E0
7CF8
FE7C
7C38
ENDCHAR

STARTCHAR section
ENCODING 253
SWIDTH 600 0
DWIDTH 15 0
BBX 13 18 1 -2
BITMAP
0FF0
1FF0
3830
3030
3800
7C00
CF00
C3C0
70F0
3830
1E18
0798
01F0
00E0
6060
60E0
7FC0
7F80
ENDCHAR

STARTCHAR afii10110
ENCODING 254
SWIDTH 600 0
DWIDTH 15 0
BBX 14 20 1 -4
BITMAP
1060
1860
0FC0
0780
0000
F87C
FCFC
F03C
3870
1870
1CE0
0EE0
0EC0
0780
0380
2700
7700
7E00
7E00
3800
ENDCHAR

STARTCHAR afii10193
ENCODING 255
SWIDTH 600 0
DWIDTH 15 0
BBX 15 15 0 -3
BITMAP
7C7C
FEFE
7C7C
3838
3838
3838
3838
3838
3838
7FFC
7FFC
7FFC
0380
0380
0100
ENDCHAR
ENDFONT
